<svg width="64" height="64" viewBox="0 0 64 64" fill="none" xmlns="http://www.w3.org/2000/svg">
  <defs>
    <linearGradient id="flame-outer" x1="32" y1="60" x2="32" y2="4" gradientUnits="userSpaceOnUse">
      <stop offset="0" stop-color="#ef4444"/>
      <stop offset="0.55" stop-color="#f97316"/>
      <stop offset="1" stop-color="#f59e0b"/>
    </linearGradient>
    <linearGradient id="flame-inner" x1="32" y1="58" x2="32" y2="28" gradientUnits="userSpaceOnUse">
      <stop offset="0" stop-color="#fde68a"/>
      <stop offset="1" stop-color="#fbbf24"/>
    </linearGradient>
  </defs>
  <path d="M33.3 3.4c.5-.4 1.3 0 1.2.7-.6 5 .8 8.6 4.4 13.2 3.3 4.2 8.3 8.5 11.2 14.7 1.2 2.6 1.9 5.5 1.9 8.4C52 53 43 60.6 32 60.6S12 53 12 40.4c0-7.6 4.6-12.3 8-17.2.8-1.1 2.5-.6 2.5.8.1 2.4.5 4.6 1.9 6 .3-7.1 2.2-12.5 4.8-16.7 1.9-3.2 2.6-8 4.1-9.9z" fill="url(#flame-outer)"/>
  <path d="M32.6 29.6c.3-.5 1-.5 1.3 0 1.5 3 3.7 5.2 5.6 7.4 2 2.3 3.7 4.8 3.7 8.4 0 6.6-5 10.8-11.2 10.8s-11.2-4.2-11.2-10.8c0-4.5 2.7-7.1 4.6-9.8.4-.6 1.4-.4 1.5.4.2 1.3.6 2.5 1.6 3.3.3-4.2 2.4-7 4.1-9.7z" fill="url(#flame-inner)"/>
</svg>
